<?xml version="1.0" encoding="UTF-8"?>
<svg version="1.1" xmlns="http://www.w3.org/2000/svg" width="517" height="453">
<path d="M0 0 C0.92930328 -0.00671722 1.85860657 -0.01343445 2.81607056 -0.02035522 C5.87979525 -0.03930835 8.94330045 -0.04325844 12.00708008 -0.04541016 C14.14691761 -0.05184123 16.28675426 -0.05856982 18.42658997 -0.06558228 C22.91120439 -0.07754926 27.39574183 -0.08126382 31.88037109 -0.08007812 C37.60540295 -0.07987527 43.32993657 -0.10714598 49.05485058 -0.14162254 C53.4757358 -0.16394807 57.89650233 -0.16791389 62.31743813 -0.16685867 C64.42679876 -0.16920733 66.53616302 -0.17798903 68.64546776 -0.19352341 C84.51958085 -0.29946151 97.3089024 0.86009375 109.52661133 12.06787109 C115.60802139 18.47694333 120.67762938 27.62123377 120.74301147 36.60816956 C120.75161194 37.48974228 120.7602124 38.371315 120.76907349 39.27960205 C120.77546341 40.72662506 120.77546341 40.72662506 120.78198242 42.20288086 C120.79015991 43.22113449 120.7983374 44.23938812 120.8067627 45.28849792 C120.83161601 48.66547051 120.84813534 52.04240096 120.86254883 55.41943359 C120.86787251 56.57365248 120.87319618 57.72787136 120.87868118 58.91706657 C120.90541634 65.02990937 120.92478749 71.14273175 120.93920898 77.25561523 C120.95253372 82.30820884 120.98035954 87.36039721 121.02124023 92.4128418 C121.07063623 98.51771231 121.09533925 104.62221593 121.10243607 110.72727776 C121.10913721 113.0496108 121.12432943 115.37193602 121.14832687 117.69415474 C121.18008335 120.95400342 121.17999851 124.2124482 121.17260742 127.47241211 C121.18901276 128.4229245 121.20541809 129.37343689 121.22232056 130.35275269 C121.14656884 138.56048801 118.45572613 144.90939193 113.15161133 151.16552734 C112.30598633 151.86677734 111.46036133 152.56802734 110.58911133 153.29052734 C109.76411133 154.01240234 108.93911133 154.73427734 108.08911133 155.47802734 C101.16099046 159.06580422 92.35095694 160.51009193 84.76953125 158.17138672 C76.7088824 154.9149965 70.53615919 147.48133346 64.58911133 141.41552734 C63.71899414 140.53638672 62.84887695 139.65724609 61.95239258 138.75146484 C59.82662941 136.60234165 57.70571244 134.44866803 55.58911133 132.29052734 C52.5752306 133.64110848 50.48564363 135.1465751 48.16333008 137.48583984 C47.53104492 138.12005859 46.89875977 138.75427734 46.24731445 139.40771484 C45.59698242 140.07029297 44.94665039 140.73287109 44.27661133 141.41552734 C43.63788086 142.05490234 42.99915039 142.69427734 42.34106445 143.35302734 C39.14976355 146.57342826 36.06872328 149.84818149 33.10864258 153.28271484 C28.84682117 158.21467176 24.2005273 162.7291385 19.55004883 167.29052734 C15.62924362 171.16591782 11.93236038 175.1454882 8.33520508 179.32177734 C4.8182068 183.28725191 0.97949436 186.93912128 -2.80541992 190.64599609 C-5.9346493 193.73635306 -8.94992023 196.86049783 -11.81713867 200.19677734 C-16.49312603 205.61966032 -21.63652987 210.56271819 -26.73901367 215.57958984 C-30.95841188 219.75593297 -34.97834824 224.01439139 -38.85131836 228.51318359 C-55.8283581 247.86084316 -80.48756533 257.83915751 -105.77416992 259.51318359 C-130.02802315 260.15659608 -154.04416954 252.24448683 -171.91088867 235.60302734 C-173.75561376 233.84364433 -175.58238649 232.06686505 -177.41088867 230.29052734 C-182.80672199 225.10056011 -182.80672199 225.10056011 -189.72338867 223.04052734 C-196.02384693 223.46767706 -199.35760375 226.98686185 -203.68432617 231.33349609 C-204.17115875 231.8207869 -204.65799133 232.3080777 -205.15957642 232.81013489 C-206.18550621 233.83907288 -207.20901755 234.87042733 -208.23022461 235.90405273 C-209.7691839 237.46112595 -211.31585055 239.01018887 -212.86401367 240.55810547 C-217.67461229 245.38644786 -222.35673895 250.276617 -226.79223633 255.45581055 C-230.25700118 259.38306664 -234.06582191 262.9835032 -237.80541992 266.64599609 C-240.95532642 269.75677332 -243.98974827 272.90412114 -246.87963867 276.25927734 C-251.1422878 281.20279957 -255.79289035 285.72268224 -260.44995117 290.29052734 C-264.37075638 294.16591782 -268.06763962 298.1454882 -271.66479492 302.32177734 C-275.1817932 306.28725191 -279.02050564 309.93912128 -282.80541992 313.64599609 C-285.91397572 316.7159363 -288.91846103 319.81871641 -291.77416992 323.12646484 C-296.03921587 328.0634262 -300.53699061 332.75276488 -305.09838867 337.41552734 C-306.33105469 338.71683594 -306.33105469 338.71683594 -307.58862305 340.04443359 C-315.56763818 348.16560004 -324.86682364 354.30389008 -336.5168457 354.58300781 C-349.94588469 354.69530449 -359.39947941 351.90052987 -369.28198242 342.51318359 C-379.03201527 332.25992324 -380.88520544 320.86748808 -380.68823242 307.33349609 C-380.46777 301.38759154 -379.2446831 296.53796372 -376.41088867 291.29052734 C-376.03319336 290.56478516 -375.65549805 289.83904297 -375.26635742 289.09130859 C-371.40545827 282.59426682 -365.87174297 277.57252467 -360.50073242 272.34130859 C-358.22590704 270.11915059 -356.08116316 267.85391953 -354.03588867 265.41552734 C-350.55839495 261.30893928 -346.73118446 257.57400987 -342.91088867 253.79052734 C-337.23588715 248.20508227 -337.23588715 248.20508227 -331.91088867 242.29052734 C-327.91374448 237.54391861 -323.42965558 233.26031107 -319.00268555 228.91943359 C-315.85586389 225.81526958 -312.82752876 222.6717087 -309.94213867 219.32177734 C-305.67948954 214.37825512 -301.028887 209.85837244 -296.37182617 205.29052734 C-293.13529526 202.09148521 -289.99875842 198.87105225 -287.03588867 195.41552734 C-281.95954013 189.5218982 -276.33120787 184.16725969 -270.79370117 178.71240234 C-266.32679583 174.28622866 -262.0515611 169.79658162 -257.95336914 165.02832031 C-243.14912197 148.3495246 -220.27261462 138.56476136 -198.2722168 137.15332031 C-172.02338483 135.84743546 -147.97579259 142.54122544 -128.11401367 160.16943359 C-126.06958549 162.02277083 -124.066407 163.90690893 -122.06713867 165.81005859 C-117.00038596 171.01860581 -117.00038596 171.01860581 -110.47671509 173.37062073 C-104.13926681 172.92650527 -101.14326729 171.1514056 -96.87182617 166.56787109 C-96.01689072 165.69951378 -96.01689072 165.69951378 -95.14468384 164.81361389 C-93.3387214 162.96978285 -91.5627506 161.09987115 -89.78588867 159.22802734 C-88.58719473 157.99772911 -87.38668676 156.76919556 -86.18432617 155.54248047 C-80.96251324 150.18885461 -75.86809863 144.7600783 -70.99926758 139.08178711 C-67.33592239 134.95052925 -63.31174442 131.15496823 -59.37182617 127.29052734 C-56.09388234 124.05055197 -52.91953306 120.78355666 -49.91088867 117.29052734 C-45.66056055 112.35590603 -41.01830529 107.84799346 -36.37182617 103.29052734 C-33.11015074 100.06663194 -29.95296063 96.81853387 -26.96557617 93.33740234 C-22.3708554 87.99907259 -17.27336188 83.17271312 -12.19995117 78.29443359 C-11.10166992 77.21742188 -11.10166992 77.21742188 -9.98120117 76.11865234 C-9.31878418 75.47831055 -8.65636719 74.83796875 -7.97387695 74.17822266 C-6.29577418 72.15149809 -5.65304608 70.90231976 -5.41088867 68.29052734 C-7.04183757 66.08657011 -7.04183757 66.08657011 -9.41088867 64.04052734 C-13.0839535 60.56677611 -16.50134068 57.03677847 -19.78198242 53.19287109 C-20.85704461 51.93734283 -21.95329985 50.69961823 -23.07104492 49.48193359 C-29.04811251 42.88806787 -31.38433521 36.15938524 -31.41088867 27.29052734 C-30.81690104 18.87139835 -27.64826073 12.2324651 -21.44995117 6.46630859 C-14.64824493 1.084882 -8.48537164 -0.00885877 0 0 Z " fill="#006FBA" transform="translate(386.410888671875,89.70947265625)"/>
<path d="M0 0 C11.29820954 9.55837119 17.98487069 21.0392051 24.1875 34.25 C28.02754178 41.98128412 33.63953195 43.91328896 41.19921875 47.2890625 C58.87947692 55.53824162 72.48050965 69.80963561 79.28027344 88.16186523 C81.85908226 95.61952745 82.91653954 102.75640451 83.0625 110.625 C79.72183448 108.7604425 76.44207381 106.87106854 73.23046875 104.7890625 C50.89156634 90.41063209 24.95623994 85.32414689 -1.3125 89.75 C-18.7100582 93.55293918 -34.37049697 101.05968594 -47.9375 112.625 C-48.79794922 113.25148437 -48.79794922 113.25148437 -49.67578125 113.890625 C-55.15880774 117.9143447 -58.81034152 124.24352455 -60.9375 130.625 C-61.76265308 138.87653078 -60.74665082 145.58937337 -55.67578125 152.29296875 C-48.74384221 160.24377547 -41.05755273 167.50987652 -33.51586914 174.87524414 C-31.60937915 176.73961483 -29.71229041 178.61313508 -27.81640625 180.48828125 C-27.22589981 181.06016678 -26.63539337 181.63205231 -26.0269928 182.2212677 C-24.60593194 183.63320427 -23.2637416 185.12364659 -21.9375 186.625 C-21.9375 187.615 -21.9375 188.605 -21.9375 189.625 C-30.97019178 189.69491927 -40.0027885 189.74802197 -49.03569317 189.78043652 C-53.23133176 189.79600427 -57.42678341 189.8170771 -61.62231445 189.85131836 C-65.68128576 189.88423278 -69.74007875 189.90191961 -73.79917336 189.90963173 C-75.33751032 189.91511832 -76.87583899 189.92582978 -78.41409874 189.94219017 C-96.94163637 190.13116712 -112.0913628 186.51381574 -125.9375 173.625 C-136.32871564 162.59590776 -141.69162286 149.18164839 -141.31640625 134.16015625 C-140.54663662 121.20650601 -134.53070248 109.28228029 -124.9375 100.625 C-123.16453442 99.08790568 -121.38523966 97.56089067 -119.5859375 96.0546875 C-117.95873606 94.64341801 -116.45252019 93.15484737 -114.9375 91.625 C-115.35902344 90.40683594 -115.78054687 89.18867187 -116.21484375 87.93359375 C-116.76855281 86.31000617 -117.32192012 84.68630202 -117.875 83.0625 C-118.29168945 81.86270508 -118.29168945 81.86270508 -118.71679688 80.63867188 C-125.0166363 62.04276033 -122.82603541 41.82803518 -114.3125 24.3125 C-104.78902642 5.9427677 -89.72696452 -5.89492555 -70.3359375 -12.625 C-45.93648886 -19.78084645 -20.45695824 -15.0492058 0 0 Z " fill="#006FBA" transform="translate(247.9375,19.375)"/>
<path d="M0 0 C7.9187407 6.97790022 7.9187407 6.97790022 8.44921875 12.37109375 C8.39892992 15.82845059 8.10103287 16.52152717 5.94921875 19.49609375 C2.72213282 21.81117713 1.03661721 22.55859375 -2.92578125 22.55859375 C-7.13223864 21.12457419 -10.07533248 18.62800734 -13.42578125 15.80859375 C-27.368098 4.45825193 -44.11251317 -0.23032754 -61.92578125 1.55859375 C-75.20447254 3.44566499 -86.57291343 8.58427137 -96.67578125 17.49609375 C-100.04291191 20.36748068 -102.3141529 22.1892724 -106.80078125 22.43359375 C-110.10899937 22.06008525 -111.10371391 21.42885119 -113.92578125 19.37109375 C-116.00494731 16.44726647 -116.92578125 15.12342667 -116.92578125 11.55859375 C-114.87829943 2.68617252 -106.82950937 -1.87425565 -99.6171875 -6.6171875 C-68.46521722 -25.82161846 -28.1088588 -23.45532276 0 0 Z " fill="#006FBB" transform="translate(319.92578125,143.44140625)"/>
<path d="M0 0 C3.02187421 2.7834416 5.05121141 5.26071821 5.5625 9.4140625 C5.13156853 13.76117825 4.85831303 15.5437088 1.58984375 18.66015625 C-2.00711154 20.22109911 -3.86466668 20.74065451 -7.72265625 20.09765625 C-9.77138512 18.84048172 -11.76414281 17.49121389 -13.72265625 16.09765625 C-21.03425896 11.73100463 -27.707883 9.13785201 -36.29296875 10.5078125 C-40.85708286 11.67326672 -44.18749553 13.25592442 -47.84765625 16.22265625 C-51.87249692 19.48318374 -54.52702249 20.18283057 -59.72265625 20.09765625 C-63.34356381 18.52334861 -64.51520909 17.40882699 -66.72265625 14.09765625 C-67.33090823 10.1102266 -67.52669696 7.63556685 -65.6484375 4.04296875 C-59.5229348 -3.88778286 -49.31177886 -8.48225968 -39.66015625 -10.40234375 C-24.76796448 -12.18228699 -12.01229052 -8.87251415 0 0 Z " fill="#006FBB" transform="translate(296.72265625,171.90234375)"/>
<path d="M0 0 C1.81914128 2.93083872 2.00904416 5.39180272 2.125 8.8125 C0.97449961 12.02179055 0.06963303 14.07028834 -2.625 16.1875 C-5.89422016 17.09561671 -8.49589635 17.16819512 -11.875 16.8125 C-14.62829021 15.01687595 -16.40127461 13.75995078 -17.875 10.8125 C-18.36902148 6.53098048 -18.29066259 3.82272795 -15.625 0.4375 C-10.56680275 -4.3907792 -5.9877785 -3.79225972 0 0 Z " fill="#006FBA" transform="translate(273.875,201.1875)"/>
</svg>
